<?xml version="1.0" encoding="utf-8"?>
<!-- Generator: Adobe Illustrator 16.0.0, SVG Export Plug-In . SVG Version: 6.00 Build 0)  -->
<!DOCTYPE svg PUBLIC "-//W3C//DTD SVG 1.1//EN" "http://www.w3.org/Graphics/SVG/1.1/DTD/svg11.dtd">
<svg version="1.1" id="Layer_1" xmlns="http://www.w3.org/2000/svg" xmlns:xlink="http://www.w3.org/1999/xlink" x="0px" y="0px"
	 width="168.699px" height="168.214px" viewBox="0 0 168.699 168.214" enable-background="new 0 0 168.699 168.214"
	 xml:space="preserve">
<g>
	<g>
		<path d="M152.919,66.857 M30.029,92.158c6.405,1.108,6.329,1.084,8.149-4.754c2.718-8.689,5.456-17.378,8.477-25.961
			c0.354-1.012,2.513-1.785,3.906-1.919c1.401-0.135,2.893,0.667,4.661,1.146c0.595-1.713,1.234-3.346,1.732-5.019
			c3.526-11.81,7.195-23.578,10.456-35.463c1.642-5.98,0.895-12.582,4.673-18.033c0.381-0.548,0.65-1.18,1.175-2.155
			c1.636,0.438,3.287,0.882,5.573,1.493c-0.553,3.729-0.186,7.779-1.768,10.811c-6.553,12.538-8.858,26.418-13.315,39.604
			c-1.13,3.342-1.983,6.774-3.023,10.358c1.732,0.578,3.524,0.672,4.45,1.615c1.09,1.116,2.264,3.155,1.963,4.464
			c-1.812,7.93-4.035,15.759-6.217,23.979c3.762,0,7.303,0,11.291,0c-8.966-6.359-4.151-14.05-2.708-21.076
			c1.105-5.391,1.059-6.653-3.519-9.372c-0.7-0.415-1.163-1.224-1.735-1.852c0.336-0.323,0.669-0.647,1.005-0.975
			C76.481,70.26,87.707,81.473,98.928,92.683c0.378-0.337,0.757-0.671,1.135-1.006c-2.604-3.151-5.211-6.305-7.987-9.662
			c6.764-8.046,13.465-16.177,20.365-24.137c1.909-2.203,2.367-3.955,1.332-6.88c-5.615-15.852,5.094-32.329,22.014-34.128
			c1.159-0.122,2.754,0.369,3.502,1.17c0.418,0.456-0.19,2.348-0.838,3.225c-2.602,3.53-5.396,6.918-8.115,10.361
			c-0.51,0.646-1.153,1.234-1.479,1.96c-0.957,2.149,5.045,13.91,7.414,14.456c3.472,0.799,6.954,1.642,10.479,2.028
			c1.146,0.126,2.773-0.828,3.609-1.786c2.969-3.409,5.617-7.099,8.562-10.531c0.777-0.904,2.19-1.26,3.31-1.871
			c0.601,1.15,1.572,2.246,1.738,3.452c2.253,16.093-10.646,30.055-27.19,29.074c-3.969-0.235-6.162,0.84-8.314,4.055
			c-4.401,6.576-9.277,12.839-14.375,19.798c12.438,0,24.201,0,36.496,0 M164.085,92.117c1.625,0.338,2.904,0.605,4.104,0.854
			c0.211,0.333,0.48,0.556,0.479,0.774c-0.071,16.728,0.297,33.471-0.41,50.168c-0.551,12.988-11.854,23.695-24.913,24.016
			c-18.37,0.449-36.765,0.213-55.146,0.238c-16.053,0.023-32.104,0.098-48.157-0.025c-14.007-0.104-24.144-7.771-27.583-20.762
			c-0.656-2.484-0.901-5.143-0.917-7.721c-0.085-14.682-0.047-29.359-0.031-44.039c-0.002-0.804,0.173-1.604,0.284-2.539
			c1.268-0.254,2.452-0.486,4.163-0.826 M39.359,92.449c3.118-0.406,6.395,2.153,7.78-2.064c1.705-5.188,3.331-10.418,4.504-15.741
			c0.284-1.298-1.333-3.017-2.078-4.54c-1.399,0.774-3.661,1.245-4.057,2.37C43.263,78.879,41.462,85.44,39.359,92.449z
			 M51.641,92.011c0.317,0.42,0.63,0.843,0.948,1.264c2.174-0.799,5.552-1.008,6.288-2.509c1.959-3.999,3.047-8.505,3.898-12.922
			c0.25-1.305-1.449-2.981-2.25-4.489c-1.375,0.852-3.549,1.412-3.984,2.605C54.632,81.21,53.229,86.645,51.641,92.011z"/>
		<path d="M15.032,54.768C9.924,49.645,5.316,45.017,0,39.683c4.081-3.077,8.481-6.39,12.879-9.712
			c0.732-0.554,1.548-1.039,2.165-1.705c6.66-7.194,14.584-12.291,24.377-13.723c3.132-0.459,6.49,0.379,9.702,0.891
			c0.814,0.128,1.469,1.29,2.197,1.976c-0.793,0.587-1.519,1.542-2.388,1.699c-6.341,1.132-11.109,4.33-14.213,10.04
			c-1.051,1.934-1.066,3.268,0.686,4.939c5.648,5.391,10.977,11.115,16.669,16.45c2.401,2.25,3.102,4.27,1.408,6.643
			c-3.153,0.426-6.024,0.812-10.126,1.365c-5.265-5.328-11.389-11.529-17.06-17.267C22.411,45.93,18.644,50.441,15.032,54.768z"/>
		<path fill="#FFFFFF" d="M39.359,92.449c2.103-7.009,3.904-13.57,6.15-19.977c0.396-1.125,2.658-1.596,4.057-2.37
			c0.745,1.523,2.362,3.242,2.078,4.54c-1.173,5.323-2.8,10.555-4.504,15.742C45.754,94.603,42.477,92.042,39.359,92.449z"/>
		<path fill="#FFFFFF" d="M51.641,92.011c1.588-5.366,2.992-10.801,4.899-16.051c0.436-1.193,2.61-1.754,3.984-2.605
			c0.802,1.508,2.501,3.185,2.25,4.489c-0.851,4.417-1.938,8.923-3.898,12.922c-0.736,1.501-4.114,1.71-6.288,2.509
			C52.271,92.854,51.958,92.431,51.641,92.011z"/>
	</g>
	<g id="cuHy51_2_">
		<g>
			<path fill="#FFFFFF" d="M68.16,133.858c3.268,0.298,3.209,0.281,2.354,3.429c-0.383,1.409-1.052,1.889-2.542,1.834
				c-4.37-0.158-8.759,0.297-13.119-0.164c-6.566-0.695-8.975-3.541-8.408-10.139c0.398-4.632,1.764-8.967,5.251-12.347
				c3.741-3.625,10.96-4.577,15.502-2.025c3.126,1.757,4.791,5.75,4.12,9.771c-0.489,2.932-1.614,5.65-2.669,8.396
				C68.507,132.987,68.357,133.357,68.16,133.858z"/>
			<path fill="#FFFFFF" d="M111.608,134.273c-0.334,1.477-0.664,2.85-0.95,4.232c-0.102,0.492-0.336,0.633-0.822,0.638
				c-4.166,0.036-8.338,0.251-12.459-0.584c-2.412-0.489-3.737-1.874-3.973-4.345c-0.391-4.121,0.525-8.062,2.61-11.547
				c2.032-3.4,5.616-4.291,9.362-4.446c0.959-0.04,1.934,0.036,2.888,0.161c3.526,0.459,4.969,2.062,5.122,5.621
				c0.009,0.201,0.009,0.404,0.004,0.604c-0.057,1.981,0.227,4.407-0.959,5.718c-0.967,1.069-3.374,0.244-5.143,0.297
				c-2.285,0.068-4.572,0.058-6.857,0.123c-1.487,0.043-1.861,0.824-1.04,2.084c0.442,0.68,1.085,1.014,1.887,1.145
				c2.577,0.422,5.171,0.312,7.761,0.299C109.846,134.27,110.655,134.273,111.608,134.273z"/>
			<path fill="#FFFFFF" d="M93.776,118.425c-1.082,5.062-2.138,10.02-3.202,14.976c-0.33,1.538-0.732,3.063-1.01,4.61
				c-0.128,0.709-0.43,0.888-1.102,0.881c-3.308-0.033-6.616,0.045-9.921-0.043c-3.792-0.102-5.689-2.148-5.449-5.973
				c0.295-4.686,1.829-9.151,2.661-13.746c0.094-0.516,0.434-0.612,0.886-0.621c1.168-0.02,2.344,0.009,3.502-0.115
				c1.194-0.128,1.211,0.449,1.03,1.337c-0.753,3.681-1.478,7.365-2.22,11.047c-0.446,2.212,0.19,3.022,2.456,3.112
				c3.304,0.128,3.302,0.127,4.086-3.118c0.883-3.649,1.812-7.291,2.625-10.957c0.213-0.965,0.6-1.409,1.572-1.394
				C91.009,118.441,92.33,118.425,93.776,118.425z"/>
			<path fill="#FFFFFF" d="M130.433,138.878c2.288-4.308,0.033-8.078-0.792-11.98c-0.438-2.076-0.472-2.068,1.663-2.068
				c0.306,0,0.609,0,0.914,0c3.029,0,3.029,0,3.873,2.934c0.563-0.229,0.779-0.762,1.09-1.186c2.458-3.363,4.915-6.724,7.341-10.106
				c0.451-0.63,0.896-0.937,1.733-0.886c1.705,0.1,3.42,0.029,5.435,0.029c-2.11,2.85-4.054,5.481-6.011,8.104
				c-2.461,3.298-4.932,6.587-7.396,9.88c-0.916,1.222-1.16,2.696-1.443,4.126c-0.188,0.951-0.605,1.222-1.53,1.176
				C133.794,138.826,132.277,138.878,130.433,138.878z"/>
			<path fill="#FFFFFF" d="M128.78,123.708c-1.626,0-3.253,0.045-4.877-0.017c-0.92-0.034-1.302,0.231-1.512,1.201
				c-0.921,4.261-2.005,8.487-2.918,12.75c-0.222,1.038-0.636,1.347-1.611,1.245c-1.346-0.139-3.188,0.576-3.899-0.312
				c-0.539-0.675,0.291-2.474,0.562-3.762c1.009-4.812,2.067-9.613,3.033-14.436c0.267-1.319,0.86-1.889,2.233-1.879
				c3.502,0.023,7.006-0.076,10.508-0.08c2.988-0.004,4.572,1.597,4.689,4.553c0.031,0.799-0.462,0.627-0.88,0.629
				c-1.776,0.011-3.552,0.005-5.328,0.005C128.78,123.641,128.78,123.675,128.78,123.708z"/>
			<path fill="#FFFFFF" d="M41.55,124.828c2.912,0,2.95,0.008,2.384,2.805c-0.976,4.826-2.034,9.639-3.344,14.388
				c-1.09,3.952-2.96,5.332-7.045,5.36c-3.897,0.027-3.871,0.035-2.901-3.719c0.281-1.09,0.485-1.85,1.968-1.852
				c1.706-0.001,2.501-1.449,2.879-2.936c0.651-2.558,1.162-5.15,1.751-7.726c0.351-1.534,0.841-3.043,1.083-4.592
				c0.224-1.44,0.884-2.013,2.31-1.739C40.929,124.876,41.244,124.828,41.55,124.828z"/>
			<path fill="#FFFFFF" d="M41.858,123.507c-2.823,0-2.861-0.01-2.176-2.789c0.649-2.637,0.045-2.18,2.828-2.201
				c3.422-0.027,3.34-0.021,2.757,3.346c-0.231,1.332-0.709,1.869-2.037,1.657C42.783,123.447,42.316,123.507,41.858,123.507z"/>
			<path d="M59.019,133.686c-1.069-0.036-2.34,0.069-3.583-0.315c-1.719-0.535-2.607-1.5-2.64-3.279
				c-0.054-2.877,0.483-5.666,1.823-8.229c1.282-2.45,3.486-3.493,6.163-3.438c2.914,0.062,4.984,2.638,4.424,5.502
				c-0.593,3.037-1.617,5.964-2.511,8.923c-0.2,0.661-0.532,0.89-1.194,0.851C60.742,133.65,59.978,133.686,59.019,133.686z"/>
			<path d="M108.033,126.305c-2.378,0-4.748-0.021-7.117,0.013c-0.763,0.01-0.867-0.293-0.623-0.904
				c0.058-0.141,0.115-0.281,0.186-0.416c0.818-1.558,3.016-2.291,5.371-1.793C107.199,123.488,107.88,124.434,108.033,126.305z"/>
		</g>
	</g>
</g>
</svg>
